<?xml version="1.0"?>
<svg id="Capa_1" xmlns="http://www.w3.org/2000/svg" version="1.1" viewBox="0 0 1008 1046">
  
  <defs>
    
  </defs>
  <path fill="#F2EFE9" stroke="#0E0D12" stroke-width="3" stroke-linejoin="round" d="M378.92,147.43c-47.97,22.7-75.27,51.56-102.55,96.74.17-6.51,1.77-12.49,3.92-18.95,10.6-31.9,28.95-60.31,53.23-83.99,15.16-1.24,29.7.55,45.4,6.19h0Z"></path>
  <path fill="#F2EFE9" stroke="#0E0D12" stroke-width="3" stroke-linejoin="round" d="M1388.92,371.43c-47.97,22.7-75.27,51.56-102.55,96.74.17-6.51,1.77-12.49,3.92-18.95,10.6-31.9,28.95-60.31,53.23-83.99,15.16-1.24,29.7.55,45.4,6.19h0Z"></path>
  <path fill="#F2EFE9" stroke="#0E0D12" stroke-width="3" stroke-linejoin="round" d="M664.5,974.71c-17.81,2.5-33.68,6.18-50.84,7.37-17.57,1.21-34.23-.14-51.86-2.71-26.63-3.88-51.38-11.77-76.28-21.74l-52.81-21.16c-25.25-10.12-51.46-14.28-78.82-14.99l-44.03-1.14c-40.12-1.04-85.97-13.97-115.36-42.5-31.27-30.35-43.4-56.31-32.09-98.6,8.41-31.46,29.54-58.53,57.25-75.68,24.37-15.08,51.77-20.78,80.43-19.62,28.57,1.16,55.58,9.68,80.6,23.38,16.58,9.08,30.9,20.09,46.64,30.28l22.5,14.56c19.16,12.39,45.71,25.94,68.94,24.32,10.71-.75,21.2-5.38,26.65-14.89,8.75-15.26,4.88-34.27-8.15-45.93-9.71-8.68-20.51-15.44-32.69-20.36l-51.13-20.69c-37.29-15.09-71.81-35.42-97.36-66.69-10.52-12.88-17.71-26.47-23.3-42.01-21.01-58.42-4.62-126.11,36.21-171.98,25.22-28.33,56.83-49.14,93.59-62.82-1.33,20.31,9.18,37.97,26.53,46.47-10.31-17.09-13.88-47.49,8.64-54.03,19.34-5.61,50.4,13.18,67.16,24.02-27.77,17.14-51.32,33.47-65.7,63.27-15.81,32.73-9.23,70.11,16.26,95.83,10.34,10.43,22.33,18.1,35.09,25.74,29.73,16.43,53.51,32.45,62.51,68.35,7.62-31.4-8.11-55.49-31.4-73.49-20.61-15.93-43.07-23.95-57.76-45.16s-14.13-50.89,1.56-72.59c9.92-13.72,22.36-24.85,37.23-33.89-2.39,10.44-4.85,19.38-4.5,29.34.87,24.94,14.9,45.91,37.52,56.18,11.47,5.21,23.68,8.57,36.57,9.27l44.16,2.41c-6.82,17.42-10.57,40.02,3.25,53.49s35.28,9.73,51.42,3.62c13.41-5.07,26.03-10.76,38.8-17.07,7.02-3.47,12.88-9.03,15.45-16.1,3.99-10.95-.64-21.17-10.72-26.44-10.98-5.74-27.01-12.09-23.35-28.18,17.11-2.62,31.01.16,48.79-1.94-20.35-21.36-41.7-38.73-64.41-55.81-1.76-1.33-4.57-4.4-4.59-6.29l-.17-16.28c-.04-3.37-3.22-7.58-6.24-9.58l-48.58-32.35c-20.12-13.4-45.74-18.54-68.51-7.96-3.07-30.24-9.11-59.17-18.39-88.22,32.87,4.37,57.95,14.04,83.13,32.92,35.39,26.53,37.85,57.77,45.53,63.29l22.7,16.33c19.99,14.38,6.69,27.35,16.6,35.54l21.34,17.65c16.5,13.64,31.98,27.8,46.99,42.95,16.37,16.51-2.44,32.81-6.33,42.49-2.23,5.55-1.87,12.52-2.57,18.5-1.75,15.07-5.89,29.17-14.56,41.78-6.31.79-11.19-7.97-20.01-3.99l-45.37,20.51c-6.34,2.86-11.31,6.63-15.94,12.18l16.25,6.86c11.26,5.39,20.93,12.61,28.39,23.43,10.12-10.55,15.82-23.26,19.71-37.87,14.3,28.66.43,60.24-25.52,76.37-9.37-15.85-22.93-26.61-39.91-33.06-11.1-4.21-22.28-8.39-34.6-7.89,13.86,25.79,22.61,52.44,23.83,81.29,1.94,45.45-16.29,89.27-50.49,119.96,1.99-14.05,4.76-25.83,4.35-39.03-1.2-38.37-17.22-73.33-45.7-99.1-18.6-16.83-39.84-29.29-63.1-38.88l-59.3-24.47c-19.57-8.08-37.78-17.58-54.37-30.71-39.53-31.3-51.37-80.4-47.92-128.96-7.57,15-10.65,30.28-11.98,46.46-2.47,29.94,7.39,58.6,26.98,81.58,14.24,16.71,31.94,29.21,51.51,39.2,20.77,10.61,41.5,18.99,63.12,27.76,18.98,7.69,37.04,15.26,54.67,25.69,41.07,24.3,67.61,65.64,62.72,114.47-3.98,39.77-29.39,72.4-67.01,85.54-41.67,14.56-86.25,3.25-123.67-18.17-22.95-13.13-43.68-28.21-65.21-43.49-26.65-18.91-82.29-35.35-96.25-34.39-9.33.64-26.14,3.78-35.96,17.5-11.04,15.42-16.96,45.23,9.2,63.76,26.43,18.71,60.93,18.92,93.08,21.87,27.3,2.5,53.72,6.41,79.73,15.4,50.47,17.45,84.38,42.97,142.18,48.56,16.94,1.64,87.37-27.77,107.33-41.46,16.07-11.03,36.22-15.11,55.21-9.98,6.74,1.82,12.81,5.14,19.3,7.59,15.73,5.94,28.91-3.9,42.19-.98,7.21,1.59,11.45,8.53,13.11,15.13,2.29,9.11.4,17.41-5.27,24.98-18.4,24.58-43.14,43.67-71.52,55.37-35.76,14.74-59.48-1.15-71.26.5h-.04Z"></path>
  <path fill="#F2EFE9" stroke="#0E0D12" stroke-width="3" stroke-linejoin="round" d="M2399.81,250.53"></path>
  <path fill="#F2EFE9" stroke="#0E0D12" stroke-width="3" stroke-linejoin="round" d="M754,899.5c-14.15-7.53-30.14-11.98-45.03-3.2,15.32,15.46,27.55,11.51,45.03,3.2Z"></path>
  <path fill="#F2EFE9" stroke="#0E0D12" stroke-width="3" stroke-linejoin="round" d="M136.67,632.77c18.58-34.86,47.25-56.26,81.15-74.19,22.59-11.95,39.28-31.42,48.2-55.37,4.65-12.49,6.66-24.74,8.23-38.06,4.47-38.01,15.42-74.37,33.98-107.9,16.27-29.41,38.06-53.85,64.14-74.98,27.39-22.19,58.45-37.96,92.56-48.89l7.17,30.55,22.12.23c-3.09-17.93-6.89-34.12-14.09-50.53-15.67-35.7-42.31-65.18-78.02-81.54-19.94-9.14-41.06-14.32-63.11-13.75-44.71,1.16-84.15,19.5-117.97,47.91-18.47,15.51-32.78,34.68-45.74,54.94l-8.92,13.93c11.49-59.17,50.92-109.46,104.98-137.77,26.63-13.95,55.42-21.05,85.66-22.41,42.05-1.89,82.22,8.91,117.44,31.61,19.61,12.64,36.43,27.67,50.94,46.17,38.49,49.08,55.93,107.31,60.07,169.29.14,2.1-1.26,5.45-2.67,6.41-1.32.91-4.54.37-6.43-.67-13.82-7.62-27.07-15.06-41.25-21.61-16.08-7.43-32.33-8.27-49.43-4.43-32.63,7.34-62.62,19.83-90.13,38.95-22.42,15.57-41.84,33.89-57.4,56.35-21.15,30.53-34.11,64.82-37.22,101.89-1.01,13.98-.55,26.76,1.83,40.38,5.37,36.2,21.36,67.36,47.36,95.6-51.36-13.79-101.66-9.62-147.53,14-40.98,21.92-63.15,49.61-83.69,92.11-6.25-37.86.33-75.5,17.77-108.22h0Z"></path>
  <path fill="#F2EFE9" stroke="#0E0D12" stroke-width="3" stroke-linejoin="round" d="M1211.67-34.23c18.58-34.86,47.25-56.26,81.15-74.19,22.59-11.95,39.28-31.42,48.2-55.37,4.65-12.49,6.66-24.74,8.23-38.06,4.47-38.01,15.42-74.37,33.98-107.9,16.27-29.41,38.06-53.85,64.14-74.98,27.39-22.19,58.45-37.96,92.56-48.89l7.17,30.55,22.12.23c-3.09-17.93-6.89-34.12-14.09-50.53-15.67-35.7-42.31-65.18-78.02-81.54-19.94-9.14-41.06-14.32-63.11-13.75-44.71,1.16-84.15,19.5-117.97,47.91-18.47,15.51-32.78,34.68-45.74,54.94l-8.92,13.93c11.49-59.17,50.92-109.46,104.98-137.77,26.63-13.95,55.42-21.05,85.66-22.41,42.05-1.89,82.22,8.91,117.44,31.61,19.61,12.64,36.43,27.67,50.94,46.17,38.49,49.08,55.93,107.31,60.07,169.29.14,2.1-1.26,5.45-2.67,6.41-1.32.91-4.54.37-6.43-.67-13.82-7.62-27.07-15.06-41.25-21.61-16.08-7.43-32.33-8.27-49.43-4.43-32.63,7.34-62.62,19.83-90.13,38.95-22.42,15.57-41.84,33.89-57.4,56.35-21.15,30.53-34.11,64.82-37.22,101.89-1.01,13.98-.55,26.76,1.83,40.38,5.37,36.2,21.36,67.36,47.36,95.6-51.36-13.79-101.66-9.62-147.53,14-40.98,21.92-63.15,49.61-83.69,92.11-6.25-37.86.33-75.5,17.77-108.22h0Z"></path>
  <path fill="#F2EFE9" stroke="#0E0D12" stroke-width="3" stroke-linejoin="round" d="M669.35,227.5c-30.24-17.34-56.16-23.98-89.49-28.03l-11.17-21.19c-20.14-37.45-48.92-69.43-84.91-92.09,59.11.61,116.2,33.77,151.09,79.93,14.18,18.76,25.67,38.6,34.47,61.38h.01Z"></path>
  <path fill="#F2EFE9" stroke="#0E0D12" stroke-width="3" stroke-linejoin="round" d="M719.86,426.66l-17.06-14.31c-9.68-8.13-21.01-13.06-33.86-13.32-16.39-.33-36.02-10.54-38.27-28.13l45.36-.03c15.9-.01,24.24,18.05,30.64,30.37l13.19,25.42Z"></path>
  <path fill="#F2EFE9" stroke="#0E0D12" stroke-width="3" stroke-linejoin="round" d="M1572.86,483.66l-17.06-14.31c-9.68-8.13-21.01-13.06-33.86-13.32-16.39-.33-36.02-10.54-38.27-28.13l45.36-.03c15.9-.01,24.24,18.05,30.64,30.37l13.19,25.42Z"></path>
  <path fill="#F2EFE9" stroke="#0E0D12" stroke-width="3" stroke-linejoin="round" class="st0" d="M2539.57,587.18c-14.15-7.53-30.14-11.98-45.03-3.2,15.32,15.46,27.55,11.51,45.03,3.2Z"></path>
  <path fill="#F2EFE9" stroke="#0E0D12" stroke-width="3" stroke-linejoin="round" d="M2168.41,66.11c-.84,10.18-16.44,71.07-10.1,113.44,5.11,34.13,32.13,62.77,35.53,66.76,15.45,16.4,34.27,23.83,53.84,33.82,20.77,10.61,41.5,18.99,63.12,27.76,18.98,7.69,37.04,15.26,54.67,25.69,41.07,24.3,67.61,65.64,62.72,114.47-3.98,39.77-29.39,72.4-67.01,85.54-41.67,14.56-86.25,3.25-123.67-18.17-22.95-13.13-43.68-28.21-65.21-43.49-26.65-18.91-82.29-35.35-96.25-34.39-9.33.64-26.14,3.78-35.96,17.5-11.04,15.42-16.96,45.23,9.2,63.76,26.43,18.71,60.93,18.92,93.08,21.87,27.3,2.5,53.72,6.41,79.73,15.4,50.47,17.45,84.38,42.97,142.18,48.56,16.94,1.64,87.37-27.77,107.33-41.46,16.07-11.03,36.22-15.11,55.21-9.98,6.74,1.82,12.81,5.14,19.3,7.59,15.73,5.94,28.91-3.9,42.19-.98,7.21,1.59,11.45,8.53,13.11,15.13,2.29,9.11.4,17.41-5.27,24.98-18.4,24.58-43.14,43.67-71.52,55.37-35.76,14.74-59.48-1.15-71.26.5h-.04c-17.81,2.51-33.68,6.19-50.84,7.38-17.57,1.21-34.23-.14-51.86-2.71-26.63-3.88-51.38-11.77-76.28-21.74l-52.81-21.16c-25.25-10.12-51.46-14.28-78.82-14.99l-44.03-1.14c-40.12-1.04-85.97-13.97-115.36-42.5-31.27-30.35-43.4-56.31-32.09-98.6,8.41-31.46,29.54-58.53,57.25-75.68,24.37-15.08,51.77-20.78,80.43-19.62,28.57,1.16,55.58,9.68,80.6,23.38,16.58,9.08,30.9,20.09,46.64,30.28l22.5,14.56c19.16,12.39,45.71,25.94,68.94,24.32,10.71-.75,21.2-5.38,26.65-14.89,8.75-15.26,4.88-34.27-8.15-45.93-9.71-8.68-20.51-15.44-32.69-20.36l-51.13-20.69c-37.29-15.09-71.81-35.42-97.36-66.69-10.52-12.88-17.71-26.47-23.3-42.01-21.01-58.42-4.62-126.11,36.21-171.98"></path>
</svg>